<svg xmlns="http://www.w3.org/2000/svg" width="58" height="51" fill="none"><path d="M36.061 10.393h1.812a.361.361 0 0 0 .219-.59.36.36 0 0 0-.22-.122h-1.81a.361.361 0 0 0 0 .712ZM36.061 11.598h1.812a.352.352 0 1 0 0-.703H36.06a.352.352 0 1 0 0 .704ZM36.061 12.813h1.812a.352.352 0 1 0 0-.704H36.06a.352.352 0 1 0 0 .704Z" fill="#fff"/><path d="M33.076 17.025h8.076v.838a.36.36 0 0 0 .218.326h.134a.353.353 0 0 0 .252-.1l.352-.352.352.352a.353.353 0 0 0 .604-.252V17h2.055a.353.353 0 0 0 .352-.352V9.396a.351.351 0 0 0-.352-.352h-.84V7.58a.352.352 0 0 0-.351-.352h-3.623a1.537 1.537 0 0 0-1.208.586 1.518 1.518 0 0 0-1.2-.586h-3.614a.353.353 0 0 0-.36.352v1.465h-.839a.352.352 0 0 0-.352.352v7.277a.352.352 0 0 0 .344.352Zm6.457-.703a.838.838 0 0 1 .772-.503h.838v.503h-1.61Zm2.826.712a.353.353 0 0 0-.251-.101.32.32 0 0 0-.243.1V15.82h.494v1.214Zm2.407-7.286v6.574H43.09v-.503h.839a.352.352 0 0 0 .352-.352v-5.72h.486ZM34.636 7.93h3.262a.84.84 0 0 1 .838.837.352.352 0 0 0 .705 0 .837.837 0 0 1 .839-.837h3.329v7.143h-3.304a1.561 1.561 0 0 0-1.208.586 1.541 1.541 0 0 0-1.2-.586h-3.261V7.93Zm-1.208 1.817h.495v5.72a.35.35 0 0 0 .223.327c.044.017.09.025.137.024h3.615a.84.84 0 0 1 .771.503h-5.241V9.748ZM24.89 34.268c-.1-.243-.25-.31-.52-.184l-1.266.762h-.889l-.41-.168a3.36 3.36 0 0 0-1.141-.418 2.04 2.04 0 0 0-.889.318 6.716 6.716 0 0 1-2.734.092c-.109-.109-1.468-.896-1.468-.896a.327.327 0 0 0-.293 0 .336.336 0 0 0-.218.21l-1.593 4.253a.334.334 0 0 0 0 .268.36.36 0 0 0 .2.185s1.376.527 1.527.527a.378.378 0 0 0 .226-.084l.269.16a.768.768 0 0 0 .022.561.838.838 0 0 0 .188.276.84.84 0 0 0 .553.251.837.837 0 0 0 1.023.603.955.955 0 0 0 1.032.419.922.922 0 0 0 1.14.327l.193.184a.898.898 0 0 0 1.266 0 .703.703 0 0 0 .168-.243.84.84 0 0 0 .592-.026.89.89 0 0 0 .289-.192c.066-.067.122-.143.168-.226a.915.915 0 0 0 1.166-.494h.159a.89.89 0 0 0 .91-1.044.886.886 0 0 0-.24-.463l.093-.05a.437.437 0 0 0 .31.192 12.313 12.313 0 0 0 1.493-.51.335.335 0 0 0 .21-.453l-1.535-4.137Zm-9.275.335.797.536a10.652 10.652 0 0 1-1.317 3.274l-.838-.284 1.358-3.526Zm3.581 6.431a.2.2 0 0 1-.05-.2.36.36 0 0 0-.378-.47.352.352 0 0 0-.209.101l-.184.176a.143.143 0 0 1-.202 0 .126.126 0 0 1 0-.176.36.36 0 0 0-.058-.477.37.37 0 0 0-.487 0l-.201.2a.143.143 0 0 1-.201 0 .142.142 0 0 1 0-.184.335.335 0 0 0-.06-.468.36.36 0 0 0-.494 0 .169.169 0 0 1-.21 0 .176.176 0 0 1 0-.21l.478-.477a.133.133 0 0 1 .156-.034c.018.008.033.02.046.034a.361.361 0 0 0 .436.05.3.3 0 0 0 .084.126.351.351 0 0 0 .503 0 .135.135 0 0 1 .201 0 .353.353 0 0 0 .117.075.351.351 0 0 0 .504.486.168.168 0 0 1 .21 0 .134.134 0 0 1 0 .159.36.36 0 0 0 .092.452.344.344 0 0 0 .419 0 .261.261 0 0 1 .26 0 .176.176 0 0 1 0 .234l-.52.511s-.16.185-.252.093Zm1.451.327a.176.176 0 0 1-.2.042.176.176 0 0 1-.06-.042l-.16-.15.26-.269.177.193a.168.168 0 0 1-.017.251v-.025Zm3.17-1.424a.174.174 0 0 1-.13.058.176.176 0 0 1-.13-.058l-1.585-1.557a.356.356 0 0 0-.503.502l1.35 1.357a.184.184 0 0 1 0 .26.201.201 0 0 1-.268 0l-1.585-1.583a.361.361 0 0 0-.582.115.35.35 0 0 0 .079.387l1.216 1.248a.184.184 0 0 1 0 .26.193.193 0 0 1-.26 0l-.738-.754a.837.837 0 0 0-.797-.645.98.98 0 0 0-.218-.368.84.84 0 0 0-.738-.235.352.352 0 0 0-.092-.327.84.84 0 0 0-1.124-.075.302.302 0 0 0-.084-.125.838.838 0 0 0-1.207 0l-.269.267-.293-.167c.558-.979.97-2.034 1.224-3.132.294.042 1.367.084 1.442.084a1.915 1.915 0 0 0-.117.695c-.206.28-.388.577-.545.888a.602.602 0 0 0 .235.636c.186.147.417.224.654.218.268-.008.53-.083.763-.218a1.501 1.501 0 0 0 .797-.988h.478l3.027 3.023a.193.193 0 0 1 0 .26v-.026Zm0-1.256-2.65-2.646a.351.351 0 0 0-.268-.1c-.243 0-.94.05-.94.05a.386.386 0 0 0-.335.402.72.72 0 0 1-.461.661.655.655 0 0 1-.587.092c.092-.15.427-.62.453-.653.074-.204.108-.42.1-.636 1.132-.838 1.476-.905 1.552-.905.29.086.571.2.838.344.177.102.365.181.562.234.28.014.56.014.839 0a11.428 11.428 0 0 0 1.132 3.023l-.235.134Zm1.057-.117a10.577 10.577 0 0 1-1.283-3.216l.771-.46 1.284 3.408a3.718 3.718 0 0 1-.764.293l-.008-.025ZM13.276 9.413c.276 0 .956-.369 1.5-.478v7.705a.368.368 0 0 0 .152.293.344.344 0 0 0 .335 0l2.902-1.156 2.91 1.156a.353.353 0 0 0 .327 0 .352.352 0 0 0 .16-.293V8.935a7.31 7.31 0 0 1 3.647 1.592c.075.064.17.1.269.1.1-.01.194-.058.26-.134a3.564 3.564 0 0 0 .679-2.043 3.556 3.556 0 0 0-.68-2.035.335.335 0 0 0-.26-.134.378.378 0 0 0-.268.1 7.933 7.933 0 0 1-5.224 1.717h-4.252a22.061 22.061 0 0 1-2.424-.561.932.932 0 0 0-.964.955.895.895 0 0 0 .93.92ZM15.48 13.6l5.368-2.236v.486l-5.368 2.236V13.6Zm5.368-3.015-5.368 2.236V9.64a4.037 4.037 0 0 0 5.368 0v.946Zm-2.516 4.547a.37.37 0 0 0-.269 0l-2.516 1.014v-1.307l5.368-2.236v3.51l-2.583-.98Zm7.078-7.93c.213.394.328.834.335 1.281a2.762 2.762 0 0 1-.335 1.282 8.107 8.107 0 0 0-2.768-1.315 8.107 8.107 0 0 0 2.734-1.282l.034.034Zm-4.764 1.675a3.295 3.295 0 0 1-3.803.81 3.295 3.295 0 0 1-1.111-.81h4.914Zm-7.405-.611c.178.101.366.183.562.242-.2.055-.392.137-.57.243-.134 0-.143-.134-.143-.251a.217.217 0 0 1 .118-.285l.033.05Z" fill="#fff"/><path d="M10.307 20.023V5.452a73.561 73.561 0 0 1 17.41-2.848v17.42h.704V2.587h1.183v17.435h.696V2.604a71.89 71.89 0 0 1 17.393 2.848v14.571h.696V5.183a.351.351 0 0 0-.251-.334c-7.506-2.052-13.419-2.965-19.07-2.965-5.653 0-11.8.947-19.197 2.965a.36.36 0 0 0-.26.335v14.84h.696ZM47.693 30.985c-.067 9.622-7.547 16.816-17.393 17.41v-17.41h-.696v17.41H28.42v-17.41h-.704v17.377c-9.804-.628-17.318-7.805-17.402-17.377h-.704c.092 10.418 8.604 18.156 19.456 18.156s19.289-7.738 19.289-18.156h-.663Z" fill="#fff"/><path d="M54.755 27.1 58 21.236h-5.426v-1.566h-2.256V3.3a.352.352 0 0 0-.26-.335A79.7 79.7 0 0 0 29.068 0 80.188 80.188 0 0 0 7.983 2.965a.352.352 0 0 0-.26.335V19.67H5.426v1.6H0l3.246 5.862L0 32.92h7.833C8.915 43.212 17.846 51 29.067 51c11.221 0 20.035-7.788 21.1-18.08H58l-3.245-5.82ZM8.428 3.566A79.483 79.483 0 0 1 29.068.703 79.096 79.096 0 0 1 49.58 3.567v16.104H8.428V3.567Zm-2.306 16.8h45.756v10.25H6.122v-10.25ZM1.191 32.224l2.851-5.126-2.851-5.125h4.235v9.338h2.315v.913H1.19Zm27.876 18.072c-11.405 0-20.362-8.3-20.63-18.985H49.53c-.227 10.686-9.133 18.985-20.463 18.985ZM50.26 31.312h2.315v-9.338h4.244l-2.86 5.125 2.86 5.126h-6.6c.025-.302.033-.612.041-.913Z" fill="#fff"/><path d="M50.276 18.457h-.696v.503h.696v-.503ZM35.139 38.614a.763.763 0 1 0 0-1.525.763.763 0 0 0 0 1.525ZM38.812 35.097a.73.73 0 1 0 .001-1.458.73.73 0 0 0-.001 1.458ZM40.867 37.852a.335.335 0 1 0 0-.67.335.335 0 0 0 0 .67ZM33.612 40.532a.293.293 0 1 0 0-.587.293.293 0 0 0 0 .587ZM38.644 42.148a.302.302 0 1 0 0-.603.302.302 0 0 0 0 .603ZM35.96 44.007a.821.821 0 1 0 .002-1.642.821.821 0 0 0-.001 1.642ZM41.823 41.545a.62.62 0 1 0 0-1.24.62.62 0 0 0 0 1.24ZM38.292 40.616a1.561 1.561 0 0 1-1.54-1.857 1.557 1.557 0 0 1 1.224-1.228 1.561 1.561 0 0 1 1.867 1.527 1.556 1.556 0 0 1-1.55 1.558Zm0-2.513a.941.941 0 0 0-.921 1.121.938.938 0 0 0 1.28.684.94.94 0 0 0 .58-.867.937.937 0 0 0-.939-.92v-.018Z" fill="#fff"/><path d="m37.317 39.97-1.66 2.968.49.274 1.66-2.969-.49-.273ZM41.949 41.436l-2.902-1.783.293-.478 2.902 1.784-.293.477ZM35.107 37.754l-.158.539 2.02.59.158-.539-2.02-.59ZM38.653 37.877l-.554-.075.495-3.685.562.076-.503 3.684ZM40.9 37.133l-1.644 1.107.315.466 1.643-1.107-.315-.466ZM38.451 41.939l-.2-1.675.553-.075.2 1.683-.553.067ZM36.837 39.324l-3.332.699.116.549 3.332-.699-.116-.549ZM40.255 22.083v1.675h-.621a2.384 2.384 0 0 1-.218-.955H37.26v2.253h2.037v.678h-2.037v2.387h2.306c.006-.349.089-.692.243-1.005h.595v1.725h-4.704v-.51c.22-.13.457-.23.704-.294v-5.141a2.417 2.417 0 0 1-.704-.302v-.51h4.553Zm-9.444 0v.528c-.214.135-.45.234-.696.293v2.22h1.066l1.526-2.362a1.167 1.167 0 0 1-.73.083v-.762h2.24v.528a2.74 2.74 0 0 1-.713.301l-1.678 2.513 1.72 2.68h.72v.586a.947.947 0 0 1-.695.209 1.075 1.075 0 0 1-.99-.662l-1.501-2.42h-.965v2.37c.243-.117.515-.155.78-.109v.762h-2.331v-.51a2.85 2.85 0 0 1 .696-.294v-5.292c-.213.114-.46.15-.696.1v-.762h2.247Zm-5.275 6.139c.245-.11.515-.148.78-.11v.763h-2.331v-.511c.22-.125.453-.223.696-.293v-5.284c-.213.114-.46.15-.696.1v-.753h2.24v.477c-.214.13-.446.226-.689.285v5.326Zm-7.245-.218v-5.26c-.202.085-.503.202-.696.101v-.762h2.247v.528c-.216.132-.45.23-.696.293v5.234h2.004c.012-.377.092-.748.235-1.097h.62v1.817h-4.394v-.51c.219-.127.453-.226.696-.294" fill="#fff"/></svg>