<svg xmlns="http://www.w3.org/2000/svg" width="69.16" height="60.9"><defs><style>.cls-1{fill:#fff}</style></defs><g id="Layer_2" data-name="Layer 2"><g id="Layer_1-2" data-name="Layer 1"><path class="cls-1" d="M43 12.41h2.16a.43.43 0 0 0 0-.85H43a.43.43 0 0 0 0 .85ZM43 13.85h2.16a.42.42 0 0 0 .42-.42.42.42 0 0 0-.42-.42H43a.42.42 0 0 0-.42.42.42.42 0 0 0 .42.42ZM43 15.3h2.16a.42.42 0 0 0 0-.84H43a.42.42 0 1 0 0 .84Z"/><path class="cls-1" d="M39.44 20.33h9.63v1a.43.43 0 0 0 .26.39h.16a.42.42 0 0 0 .3-.12l.42-.42.42.42a.42.42 0 0 0 .72-.3v-1h2.45a.42.42 0 0 0 .42-.42v-8.66a.42.42 0 0 0-.42-.42h-1V9.05a.42.42 0 0 0-.42-.42h-4.32a1.83 1.83 0 0 0-1.44.7 1.81 1.81 0 0 0-1.43-.7h-4.31a.42.42 0 0 0-.43.42v1.75h-1a.42.42 0 0 0-.42.42v8.69a.42.42 0 0 0 .41.42Zm7.7-.84a1 1 0 0 1 .92-.6h1v.6Zm3.37.85a.42.42 0 0 0-.3-.12.38.38 0 0 0-.29.12v-1.45h.59Zm2.87-8.7v7.85h-2v-.6h1a.42.42 0 0 0 .42-.42v-6.83ZM41.3 9.47h3.89a1 1 0 0 1 1 1 .42.42 0 1 0 .84 0 1 1 0 0 1 1-1H52V18h-3.94a1.86 1.86 0 0 0-1.44.7 1.84 1.84 0 0 0-1.43-.7H41.3Zm-1.44 2.17h.59v6.83a.42.42 0 0 0 .43.42h4.31a1 1 0 0 1 .92.6h-6.25ZM29.68 40.92c-.12-.29-.3-.37-.62-.22l-1.51.91h-1.06l-.49-.2a4 4 0 0 0-1.36-.5 2.43 2.43 0 0 0-1.06.38 8 8 0 0 1-3.26.11c-.13-.13-1.75-1.07-1.75-1.07a.39.39 0 0 0-.35 0 .4.4 0 0 0-.26.25l-1.9 5.08a.4.4 0 0 0 0 .32.43.43 0 0 0 .24.22s1.64.63 1.82.63a.45.45 0 0 0 .27-.1l.32.19a.92.92 0 0 0-.05.28 1 1 0 0 0 .3.72 1 1 0 0 0 .66.3 1 1 0 0 0 1.22.72 1.14 1.14 0 0 0 1.23.5 1.1 1.1 0 0 0 1.36.39l.23.22a1.07 1.07 0 0 0 1.51 0 .84.84 0 0 0 .2-.29 1 1 0 0 0 .3.05 1.06 1.06 0 0 0 .75-.31 1.26 1.26 0 0 0 .2-.27 1.23 1.23 0 0 0 .39.07 1.09 1.09 0 0 0 1-.66h.19a1.06 1.06 0 0 0 .8-1.8l.11-.06a.52.52 0 0 0 .37.23 14.67 14.67 0 0 0 1.78-.61.4.4 0 0 0 .25-.54Zm-11.06.4.95.64A12.73 12.73 0 0 1 18 45.87l-1-.34ZM22.89 49a.24.24 0 0 1-.06-.24.43.43 0 0 0-.18-.5.42.42 0 0 0-.52.06l-.22.21a.17.17 0 0 1-.24 0 .15.15 0 0 1 0-.21.43.43 0 0 0-.07-.57.44.44 0 0 0-.58 0l-.24.24a.17.17 0 0 1-.24 0 .17.17 0 0 1 0-.22.4.4 0 0 0-.07-.56.43.43 0 0 0-.59 0 .2.2 0 0 1-.25 0 .21.21 0 0 1 0-.25l.57-.57a.16.16 0 0 1 .24 0 .43.43 0 0 0 .52.06.36.36 0 0 0 .1.15.42.42 0 0 0 .6 0 .16.16 0 0 1 .24 0 .42.42 0 0 0 .14.09.42.42 0 0 0 .6.58.2.2 0 0 1 .25 0 .16.16 0 0 1 0 .19.43.43 0 0 0 .11.54.41.41 0 0 0 .5 0 .31.31 0 0 1 .31 0 .21.21 0 0 1 0 .28l-.62.61s-.19.22-.3.11Zm1.73.39a.21.21 0 0 1-.31 0l-.19-.18.31-.32.21.23a.2.2 0 0 1-.02.3Zm3.78-1.7a.21.21 0 0 1-.31 0l-1.89-1.86a.42.42 0 1 0-.6.6l1.61 1.62a.22.22 0 0 1 0 .31.24.24 0 0 1-.32 0L25 46.47a.43.43 0 0 0-.6 0 .42.42 0 0 0 0 .6l1.45 1.49a.22.22 0 0 1 0 .31.23.23 0 0 1-.31 0l-.88-.9a1 1 0 0 0-.95-.77 1.17 1.17 0 0 0-.26-.44 1 1 0 0 0-.88-.28.42.42 0 0 0-.11-.39 1 1 0 0 0-1.34-.09.36.36 0 0 0-.1-.15 1 1 0 0 0-1.44 0l-.32.32-.35-.2a13.83 13.83 0 0 0 1.46-3.74c.35.05 1.63.1 1.72.1a2.29 2.29 0 0 0-.14.83 7.57 7.57 0 0 0-.65 1.06.72.72 0 0 0 .28.76 1.21 1.21 0 0 0 .78.26 1.92 1.92 0 0 0 .91-.26 1.79 1.79 0 0 0 .95-1.18h.57l3.61 3.61a.23.23 0 0 1 0 .31Zm0-1.5-3.16-3.16a.42.42 0 0 0-.32-.12c-.29 0-1.12.06-1.12.06a.46.46 0 0 0-.4.48.86.86 0 0 1-.55.79.78.78 0 0 1-.7.11c.11-.18.51-.74.54-.78a2 2 0 0 0 .12-.76c1.35-1 1.76-1.08 1.85-1.08a5.29 5.29 0 0 1 1 .41 2.76 2.76 0 0 0 .67.28 9.77 9.77 0 0 0 1 0 13.66 13.66 0 0 0 1.35 3.61Zm1.26-.14a12.64 12.64 0 0 1-1.53-3.84l.92-.55 1.53 4.07c-.26.13-.58.27-.91.35ZM15.83 11.24c.33 0 1.14-.44 1.79-.57v9.2a.44.44 0 0 0 .18.35.41.41 0 0 0 .4 0l3.46-1.38 3.47 1.38a.42.42 0 0 0 .39 0 .42.42 0 0 0 .19-.35v-9.2a8.71 8.71 0 0 1 4.35 1.9.49.49 0 0 0 .32.12.47.47 0 0 0 .31-.16 4.26 4.26 0 0 0 .81-2.44 4.25 4.25 0 0 0-.81-2.43.4.4 0 0 0-.31-.16.45.45 0 0 0-.32.12 9.45 9.45 0 0 1-6.23 2.05h-5.07A26.27 26.27 0 0 1 15.87 9a1.11 1.11 0 0 0-1.15 1.14 1.07 1.07 0 0 0 1.11 1.1Zm2.63 5 6.4-2.67v.58l-6.4 2.67Zm6.4-3.6-6.4 2.67v-3.8a4.81 4.81 0 0 0 6.4 0Zm-3 5.43a.44.44 0 0 0-.32 0l-3 1.21v-1.56l6.4-2.67v4.19ZM30.3 8.6a3.34 3.34 0 0 1 .4 1.53 3.3 3.3 0 0 1-.4 1.53 9.66 9.66 0 0 0-3.3-1.57 9.66 9.66 0 0 0 3.26-1.53Zm-5.68 2a3.93 3.93 0 0 1-5.86 0Zm-8.83-.73a3.27 3.27 0 0 0 .67.29 2.72 2.72 0 0 0-.68.29c-.16 0-.17-.16-.17-.3a.26.26 0 0 1 .14-.34ZM45.31 47.44h.3M45.46 47.09v.45"/><path class="cls-1" d="M12.29 23.91V6.51a87.6 87.6 0 0 1 20.76-3.4v20.8h.84V3.09h1.41v20.82h.83V3.11a85.61 85.61 0 0 1 20.74 3.4v17.4h.83V6.19a.42.42 0 0 0-.3-.4c-8.95-2.45-16-3.54-22.74-3.54S20.59 3.38 11.77 5.79a.43.43 0 0 0-.31.4v17.72ZM56.87 37c-.08 11.49-9 20.08-20.74 20.79V37h-.83v20.79H33.89V37h-.84v20.75C21.36 57 12.4 48.43 12.3 37h-.84c.11 12.44 10.26 21.68 23.2 21.68s23-9.24 23-21.68Z"/><path class="cls-1" d="m65.29 32.36 3.87-7h-6.47v-1.87H60V3.94a.42.42 0 0 0-.31-.4A94.91 94.91 0 0 0 34.66 0 95.49 95.49 0 0 0 9.52 3.54a.42.42 0 0 0-.31.4v19.55H6.47v1.91H0l3.87 7L0 39.31h9.34C10.63 51.6 21.28 60.9 34.66 60.9s23.89-9.3 25.16-21.59h9.34ZM10.05 4.26A94.65 94.65 0 0 1 34.66.84a94.19 94.19 0 0 1 24.46 3.42v19.23H10.05ZM7.3 24.32h54.56v12.24H7.3ZM1.42 38.48l3.4-6.12-3.4-6.12h5.05v11.15h2.76v1.09Zm33.24 21.58c-13.6 0-24.28-9.91-24.6-22.67h49c-.27 12.76-10.89 22.67-24.4 22.67Zm25.27-22.67h2.76V26.24h5.06l-3.41 6.12 3.41 6.12h-7.87c.03-.36.04-.73.05-1.09Z"/><path class="cls-1" d="M59.12 22.04h.83v.6h-.83z"/><circle class="cls-1" cx="41.9" cy="45.2" r=".91"/><circle class="cls-1" cx="46.28" cy="41.04" r=".87"/><circle class="cls-1" cx="48.73" cy="44.8" r=".4"/><circle class="cls-1" cx="40.08" cy="48.05" r=".35"/><circle class="cls-1" cx="46.08" cy="49.97" r=".36"/><circle class="cls-1" cx="42.88" cy="51.57" r=".98"/><circle class="cls-1" cx="49.87" cy="48.87" r=".74"/><path class="cls-1" d="M45.66 48.5a1.86 1.86 0 1 1 1.85-1.86 1.86 1.86 0 0 1-1.85 1.86Zm0-3a1.12 1.12 0 1 0 1.12 1.12 1.12 1.12 0 0 0-1.12-1.1Z"/><path class="cls-1" transform="rotate(-60.81 43.8 49.665)" d="M41.77 49.33h4.06V50h-4.06z"/><path class="cls-1" d="m50.02 49.48-3.46-2.13.35-.57 3.46 2.13-.35.57z"/><path class="cls-1" transform="rotate(-73.7 42.923 45.755)" d="M42.64 44.51h.67v2.51h-.67z"/><path class="cls-1" d="m46.09 45.23-.66-.09.59-4.4.67.09-.6 4.4z"/><path class="cls-1" transform="rotate(-33.85 47.852 45.458)" d="M46.69 45.12h2.36v.67h-2.36z"/><path class="cls-1" d="m45.85 50.08-.24-2 .66-.09.24 2.01-.66.08z"/><path class="cls-1" transform="rotate(-11.86 41.998 47.715)" d="M39.98 47.37h4.06v.67h-4.06z"/><path class="cls-1" d="M42.64 26.37H48v2h-.74a2.85 2.85 0 0 1-.26-1.14h-2.57v2.69h2.43v.81h-2.43v2.85h2.75a2.83 2.83 0 0 1 .29-1.2h.71v2.06h-5.61v-.61a3.25 3.25 0 0 1 .84-.35v-6.14a2.88 2.88 0 0 1-.84-.36v-.61Zm-8.51 0h2.61V27a2.77 2.77 0 0 1-.83.35V30h1.27L39 27.18a1.39 1.39 0 0 1-.87.1v-.91h2.67V27a3.27 3.27 0 0 1-.85.36l-2 3 2.05 3.2h.86v.7a1.13 1.13 0 0 1-.83.25 1.28 1.28 0 0 1-1.18-.79l-1.79-2.89h-1.15v2.83a1.53 1.53 0 0 1 .93-.13v.91h-2.78v-.61a3.39 3.39 0 0 1 .83-.35v-6.32a1.22 1.22 0 0 1-.83.12v-.91Zm-3.68 1v6.33a1.67 1.67 0 0 1 .93-.13v.91H28.6v-.61a3.83 3.83 0 0 1 .83-.35v-6.31a1.22 1.22 0 0 1-.83.12v-.9h2.67V27a2.84 2.84 0 0 1-.82.34m-8.64 6.1v-6.28c-.24.1-.6.24-.83.12v-.91h2.68V27a3 3 0 0 1-.83.35v6.25h2.39a3.75 3.75 0 0 1 .28-1.31h.74v2.17H21v-.61a3.57 3.57 0 0 1 .83-.35"/></g></g></svg>