<?xml version="1.0" encoding="UTF-8"?> <!-- Generator: Adobe Illustrator 25.3.1, SVG Export Plug-In . SVG Version: 6.00 Build 0) --> <svg xmlns="http://www.w3.org/2000/svg" xmlns:xlink="http://www.w3.org/1999/xlink" id="Layer_1" x="0px" y="0px" viewBox="0 0 463.2 72.9" style="enable-background:new 0 0 463.2 72.9;" xml:space="preserve"> <style type="text/css"> .st0{fill:#039BE5;} .st1{fill:#FFFFFF;} </style> <g id="Layer_2_1_"> <g id="Слой_1"> <rect class="st0" width="463.2" height="72.9"></rect> <path class="st1" d="M24.3,33.5l36.2-14c1.7-0.6,3.1,0.4,2.6,3l0,0l-6.1,29c-0.5,2.1-1.7,2.6-3.4,1.6l-9.4-7l-4.5,4.4 c-0.5,0.6-1.2,0.9-1.9,0.9l0.7-9.5l17.4-15.6c0.7-0.7-0.2-1.1-1.2-0.4L33.1,39.4l-9.3-2.9C21.9,35.8,21.9,34.4,24.3,33.5z"></path> <path class="st1" d="M104.6,26.3v17.5h-2.7v-15h-7.5v15h-2.7V26.3H104.6z"></path> <path class="st1" d="M119.6,38.3c0,3.3-2.6,6-5.8,6c-3.3,0-6-2.6-6-5.8c0-3.3,2.6-6,5.8-6c0,0,0.1,0,0.1,0 c3.2-0.1,5.8,2.4,5.9,5.6C119.6,38.1,119.6,38.2,119.6,38.3z M117,38.3c0.1-1.8-1.3-3.4-3.1-3.5s-3.4,1.3-3.5,3.1 c0,0.1,0,0.2,0,0.4c-0.2,1.8,1.1,3.3,2.8,3.5c0.2,0,0.3,0,0.5,0C115.7,41.9,117,40.5,117,38.3L117,38.3z"></path> <path class="st1" d="M131.5,32.8v8.7h1.7V47h-2.4v-3.2h-7.7V47h-2.4v-5.5c0.9-0.1,1.6-0.6,2-1.4c0.3-0.9,0.5-1.9,0.4-2.9v-4.3 H131.5z M129,35.1h-3.3v2.9c0,1.9-0.6,2.9-1.3,3.4h4.6V35.1z"></path> <path class="st1" d="M144.7,32.8v11.1h-2.6v-8.7h-4.5v8.7h-2.6V32.8H144.7z"></path> <path class="st1" d="M150.5,32.8V39l7.6-7.3v12.1h-2.6v-6.4l-7.5,7.3V32.8H150.5z"></path> <path class="st1" d="M169.9,36.2c-0.8-0.9-1.9-1.4-3.1-1.4c-0.9,0-1.8,0.3-2.4,1c-0.7,0.7-1,1.6-1,2.5c0,1,0.3,1.9,1,2.7 c0.6,0.6,1.5,0.9,2.3,0.9c1.2,0,2.4-0.5,3.2-1.4v2.8c-1,0.6-2.2,0.9-3.4,0.9c-1.6,0.1-3.1-0.5-4.2-1.6c-1.1-1.1-1.6-2.6-1.6-4.2 c0-1.6,0.6-3.1,1.7-4.3c1.2-1.1,2.8-1.7,4.4-1.6c1.1,0,2.1,0.3,3,0.8L169.9,36.2z"></path> <path class="st1" d="M180.5,32.8h2.6v11.1h-2.6v-1.2c-0.8,1-2,1.5-3.3,1.5c-3.4,0-5.4-2.8-5.4-5.9c0-3.6,2.5-5.8,5.4-5.8 c1.3,0,2.5,0.6,3.3,1.6V32.8z M174.5,38.3c0,1.9,1.2,3.5,3.1,3.5c1.8,0,3.2-1.4,3.1-3.2c0-0.1,0-0.2,0-0.3c0-2.4-1.5-3.6-3.1-3.6 C175.7,34.8,174.5,36.4,174.5,38.3L174.5,38.3z"></path> <path class="st1" d="M190.7,35.1v8.7h-2.6v-8.7h-3.2v-2.4h9.1v2.4L190.7,35.1z"></path> <path class="st1" d="M195.8,32.8h2.6v3.9h1.5c1.2-0.2,2.5,0.3,3.3,1.1c0.6,0.7,0.9,1.5,0.9,2.4c0,1-0.3,1.9-1,2.7 c-0.9,0.8-2.1,1.1-3.2,1h-4L195.8,32.8z M199.6,41.6c0.5,0,0.9,0,1.3-0.2c0.4-0.3,0.6-0.7,0.6-1.1c0-0.4-0.2-0.9-0.6-1.1 c-0.4-0.2-0.9-0.3-1.3-0.3h-1.2v2.7H199.6z"></path> <path class="st1" d="M214.9,36.2c-0.8-0.9-1.9-1.4-3.1-1.4c-0.9,0-1.8,0.3-2.4,1c-0.7,0.7-1,1.6-1,2.5c0,1,0.3,1.9,1,2.7 c0.6,0.6,1.5,0.9,2.3,0.9c1.2,0,2.4-0.5,3.2-1.4v2.8c-1,0.6-2.2,0.9-3.4,0.9c-1.6,0.1-3.1-0.5-4.2-1.6c-1.1-1.1-1.6-2.6-1.6-4.2 c0-1.6,0.6-3.1,1.7-4.3c1.2-1.1,2.8-1.7,4.4-1.6c1.1,0,2.1,0.3,3,0.8L214.9,36.2z"></path> <path class="st1" d="M219.4,39.4c-0.7-0.1-1.3-0.4-1.8-0.8c-0.6-0.6-1-1.4-0.9-2.3c0-1,0.3-1.9,1-2.5c0.9-0.8,2-1.1,3.2-1h4.1 v11.1h-2.6v-4.1H222l-3,4.1h-3L219.4,39.4z M222.5,35H221c-0.5,0-0.9,0-1.3,0.2c-0.6,0.4-0.8,1.2-0.5,1.8c0.1,0.2,0.2,0.3,0.3,0.4 c0.4,0.2,0.9,0.3,1.4,0.3h1.5L222.5,35z"></path> <path class="st1" d="M237.1,32.8V39l7.6-7.3v12.1h-2.6v-6.4l-7.6,7.3V32.8H237.1z"></path> <path class="st1" d="M263.6,32.8v11.1h-2.6v-8.7h-4.5v8.7H254V32.8H263.6z"></path> <path class="st1" d="M278.2,38.3c0,3.3-2.6,6-5.8,6c-3.3,0-6-2.6-6-5.8c0-3.3,2.6-6,5.8-6c0,0,0.1,0,0.1,0 c3.2-0.1,5.8,2.4,5.9,5.6C278.2,38.1,278.2,38.2,278.2,38.3z M275.5,38.3c0.1-1.8-1.2-3.4-3-3.5s-3.4,1.2-3.5,3c0,0.2,0,0.3,0,0.5 c-0.1,1.8,1.2,3.4,3,3.5s3.4-1.2,3.5-3C275.6,38.7,275.6,38.5,275.5,38.3z"></path> <path class="st1" d="M290,43.8h-2.6v-8.7h-3.3v4.4c0.1,1.2-0.3,2.3-1,3.2c-0.9,1-2.3,1.4-3.6,1.1v-2.4c0.6,0.2,1.3,0,1.8-0.5 c0.3-0.4,0.4-0.9,0.4-1.4v-6.8h8.3V43.8z"></path> <path class="st1" d="M296.5,42.1l-4.7-9.3h3.1l3.2,6.5l3.2-6.5h2.9l-8.8,17.1h-2.9L296.5,42.1z"></path> <path class="st1" d="M311.9,39.5c-0.7,0.2-1.5,0.2-2.3,0.2c-1,0.1-2.1-0.2-2.9-0.8c-0.8-0.7-1.2-1.7-1.1-2.7v-3.6h2.6v3 c-0.1,0.6,0.2,1.2,0.6,1.5c0.4,0.2,0.8,0.3,1.3,0.3c0.6,0,1.2-0.1,1.7-0.3v-4.5h2.6v11.1h-2.6V39.5z"></path> <path class="st1" d="M320.3,32.8V39l7.6-7.3v12.1h-2.6v-6.4l-7.6,7.3V32.8H320.3z"></path> <path class="st1" d="M335.5,35.1v8.7h-2.6v-8.7h-3.2v-2.4h9v2.4L335.5,35.1z"></path> <path class="st1" d="M340.6,32.8h2.6v3.9h1.5c1.2-0.2,2.5,0.3,3.4,1.1c0.6,0.7,0.9,1.5,0.9,2.4c0,1-0.3,1.9-1,2.7 c-0.9,0.8-2.1,1.1-3.2,1h-4L340.6,32.8z M344.4,41.6c0.5,0,0.9,0,1.3-0.2c0.4-0.2,0.6-0.7,0.6-1.1c0-0.4-0.2-0.9-0.5-1.1 c-0.4-0.2-0.9-0.3-1.3-0.3h-1.2v2.7H344.4z"></path> <path class="st1" d="M368.2,25.2c-0.4,1.8-1.7,3.3-3.5,3.7l-1.7,0.5c-1.1,0.2-2.1,0.8-2.9,1.6c-0.6,0.9-0.9,1.9-0.9,3l0,0 c1-1.1,2.3-1.6,3.8-1.5c1.5,0,2.9,0.5,3.9,1.6c1.1,1.1,1.6,2.7,1.6,4.2c0,3.3-2.7,6-6,6c-1.5,0-2.9-0.6-4-1.5 c-1.8-1.7-1.9-4.2-1.9-5.7c0-3.3,0.4-5.8,1.7-7.6c0.7-1.2,1.9-2,3.3-2.4l1.8-0.5c1.6-0.4,2-1,2.1-1.5L368.2,25.2z M365.9,38.3 c0.1-1.8-1.3-3.4-3.1-3.5c-1.8-0.1-3.4,1.3-3.5,3.1c0,0.1,0,0.2,0,0.4c-0.2,1.8,1.1,3.3,2.8,3.5c0.2,0,0.3,0,0.5,0 C364.6,41.9,365.9,40.5,365.9,38.3L365.9,38.3z"></path> <path class="st1" d="M382.4,38.3c0,3.3-2.6,6-5.8,6c-3.3,0-6-2.6-6-5.8c0-3.3,2.6-6,5.8-6c0,0,0.1,0,0.1,0 c3.2-0.1,5.8,2.4,5.9,5.6C382.4,38.1,382.4,38.2,382.4,38.3z M379.8,38.3c0.1-1.8-1.3-3.4-3.1-3.5c-1.8-0.1-3.4,1.3-3.5,3.1 c0,0.1,0,0.2,0,0.4c0,2.1,1.3,3.5,3.3,3.5c1.8,0.1,3.2-1.3,3.3-3.1C379.8,38.6,379.8,38.5,379.8,38.3L379.8,38.3z"></path> <path class="st1" d="M385.1,32.8h2.6v4.1h4.6v-4.1h2.6v11.1h-2.6v-4.6h-4.6v4.6h-2.6V32.8z"></path> <path class="st1" d="M401.4,42.1l-4.7-9.3h3.1l3.2,6.5l3.2-6.5h2.9l-8.8,17.1h-2.9L401.4,42.1z"></path> <path class="st1" d="M418.8,36.2c-0.8-0.9-1.9-1.4-3.1-1.4c-0.9,0-1.8,0.3-2.5,1c-0.7,0.7-1,1.6-1,2.5c0,1,0.3,1.9,1,2.7 c0.6,0.6,1.5,0.9,2.3,0.9c1.2,0,2.4-0.5,3.2-1.4v2.8c-1,0.6-2.2,0.9-3.4,0.9c-1.6,0.1-3.1-0.5-4.2-1.6c-1.1-1.1-1.6-2.6-1.6-4.2 c0-1.6,0.6-3.1,1.7-4.3c1.2-1.1,2.8-1.7,4.4-1.6c1.1,0,2.1,0.3,3,0.8L418.8,36.2z"></path> </g> </g> </svg> 