<svg xmlns="http://www.w3.org/2000/svg" viewBox="0 0 719.83 56.19" width="3072" height="240"><defs><style>.cls-1{fill:#fff}</style></defs><g id="Layer_2" data-name="Layer 2"><g id="Layer_1-2" data-name="Layer 1"><path class="cls-1" d="M22.33 55.24 0 1h18.53l14 37.36L44.66 1h18.09l12.41 36.21L88.87 1h16.71l-22 54.29H66.47L53.41 18.9 41.08 55.24ZM125.87 55.24h-17V1h17ZM151.19 1v40.74h37.72v13.5h-54.72V1ZM195.19 1h36c31.45 0 38.31 13.5 38.31 25.68v2.19c0 11.68-6.49 26.42-38.24 26.42h-36Zm17 41.23h17.66c19.26 0 21.82-8.47 21.82-14v-.44c0-5.55-2.27-13.94-21.82-13.94h-17.66ZM275.31 1h46.48c15.54 0 19.85 6 19.85 12.4v1c0 7.08-6 9.78-8.62 10.58 3.73.95 11.68 4.09 11.68 13.65v1c0 8.54-4.89 15.62-22.47 15.62h-46.92Zm17 11.45v8.83h26.56c4.74 0 5.91-2.19 5.91-4.37v-.15c0-2.26-1.17-4.31-5.91-4.31Zm0 20.36v10.61h28c5.62 0 6.71-3.14 6.71-5.33v-.29c0-2.34-1.09-5-6.71-5ZM407.31 1v12.28h-40.43v8h39.48v12.4h-39.48v8.9H408v12.66h-57.9V1ZM432.12 55.24h-17V1h43.78c18.1 0 23.56 6.22 23.56 14v.88c0 7.8-6.49 10.72-10.07 11.89 5.55 1.61 10.29 5.47 10.29 12.48v7.95c0 4.38.51 5.77 1 6.64v.37h-17.27c-.51-.66-.8-1.46-.8-3.43v-6.25c0-6.64-2.92-9.56-11.31-9.56h-22.18Zm0-31.31h25.75c4.89 0 6.86-2.33 6.86-5.32v-.08c0-2.84-1.9-5.25-6.86-5.25h-25.75ZM506.4 55.24h-17V1h43.78c18.09 0 23.56 6.22 23.56 14v.88c0 7.8-6.49 10.72-10.07 11.89 5.55 1.64 10.33 5.5 10.33 12.51v7.95c0 4.38.51 5.77 1 6.64v.37h-17.31c-.51-.66-.8-1.46-.8-3.43v-6.28c0-6.64-2.92-9.56-11.31-9.56H506.4Zm0-31.31h25.75c4.89 0 6.86-2.33 6.86-5.32v-.08c0-2.84-1.89-5.25-6.86-5.25H506.4ZM580.68 55.24h-17V1h17ZM646.2 1v12.28h-40.42v8h39.47v12.4h-39.47v8.9h41.15v12.66H589V1ZM683 56.19c-28.46 0-31.74-12.26-31.74-19.41V36H669c.22 3.29 2.11 8.61 16.12 8.61h1c14.3 0 15.9-2.84 15.9-5.76 0-3.14-1.68-5.11-14.23-5.47l-9.34-.22C658.17 32.54 652 25.68 652 17.22v-.66C652 8.46 656.78 0 681.52 0h5c25.69 0 31.53 9 31.53 17.15v.73h-17.63c-.37-2-1.46-6.5-15.69-6.5h-1.17c-13.13 0-14.08 2.34-14.08 4.67s1.46 4.45 12.55 4.67l9.12.15c20.43.36 28.68 5.33 28.68 16.12v1c0 9-4.53 18.17-31.82 18.17Z"/></g></g></svg>